<svg xmlns="http://www.w3.org/2000/svg" width="19.811" height="20.362" viewBox="0 0 19.811 20.362"><defs><style>.a{fill:#fff;}</style></defs><path class="a" d="M25.384,12.858l-2.148-1.685a8,8,0,0,0,.071-.993,8,8,0,0,0-.071-.993L25.389,7.5a.508.508,0,0,0,.122-.652L23.475,3.324a.5.5,0,0,0-.621-.219L20.319,4.128a7.725,7.725,0,0,0-1.721-1l-.382-2.7A.524.524,0,0,0,17.707,0H13.635a.514.514,0,0,0-.5.428l-.382,2.7a7.534,7.534,0,0,0-1.721,1L8.494,3.105a.509.509,0,0,0-.621.219L5.836,6.852a.51.51,0,0,0,.122.652L8.107,9.188a8,8,0,0,0-.071.993,8,8,0,0,0,.071.993L5.958,12.858a.508.508,0,0,0-.122.652l2.036,3.528a.5.5,0,0,0,.621.219l2.535-1.023a7.725,7.725,0,0,0,1.721,1l.382,2.7a.514.514,0,0,0,.5.428h4.072a.514.514,0,0,0,.5-.428l.382-2.7a7.534,7.534,0,0,0,1.721-1l2.535,1.023a.509.509,0,0,0,.621-.219l2.036-3.528A.51.51,0,0,0,25.384,12.858Zm-9.713.886a3.563,3.563,0,1,1,3.563-3.563A3.561,3.561,0,0,1,15.671,13.744Z" transform="translate(-5.768)"/></svg>