<svg xmlns="http://www.w3.org/2000/svg" width="19.91" height="18.103" viewBox="0 0 19.91 18.103"><defs><style>.a{fill:#fff;}</style></defs><path class="a" d="M23.549,54.151v2.463a2.012,2.012,0,0,1-2.016,2.01H20.261a2.022,2.022,0,0,1-2.028-2.01V54.142H12.5v2.472a2.022,2.022,0,0,1-2.028,2.01H9.2a2.012,2.012,0,0,1-2.016-2.01V54.151a1.833,1.833,0,0,0-1.772,1.824V70.409a1.834,1.834,0,0,0,1.825,1.836H23.5a1.836,1.836,0,0,0,1.825-1.836V55.975A1.833,1.833,0,0,0,23.549,54.151Zm-.591,15.36a.789.789,0,0,1-.789.789H8.528a.789.789,0,0,1-.789-.789V62.054a.789.789,0,0,1,.789-.789H22.169a.789.789,0,0,1,.789.789V69.51Z" transform="translate(-5.411 -54.142)"/></svg>