<svg xmlns="http://www.w3.org/2000/svg" width="16.047" height="19.812" viewBox="0 0 16.047 19.812"><defs><style>.a{fill:#fff;}</style></defs><path class="a" d="M76.181,30.663a2.246,2.246,0,0,0-1.6-.663h-.409v.822a1.646,1.646,0,0,1-1.644,1.644h-7.4a1.646,1.646,0,0,1-1.644-1.644V30h-.413a2.264,2.264,0,0,0-2.261,2.258l-.017,15.29a2.261,2.261,0,0,0,2.261,2.263H74.564a2.264,2.264,0,0,0,2.261-2.258l.017-15.29A2.246,2.246,0,0,0,76.181,30.663ZM63.261,45.085a2.261,2.261,0,1,1,2.261,2.261A2.263,2.263,0,0,1,63.261,45.085Zm7.156-10.1a.617.617,0,0,1,.872-.872l1.017,1.017,1.017-1.017a.617.617,0,0,1,.872.872L73.178,36,74.2,37.015a.617.617,0,1,1-.872.872L72.306,36.87l-1.017,1.017a.617.617,0,0,1-.872-.872L71.434,36Zm-5.5-.678a.617.617,0,0,1,.872,0l1.458,1.458a.617.617,0,1,1-.872.872l-.4-.4V38.36a1.86,1.86,0,0,0,1.193,1.729l3.584,1.362a3.1,3.1,0,0,1,1.988,2.882v2.4a.617.617,0,0,1-1.233,0v-2.4A1.86,1.86,0,0,0,70.306,42.6l-3.584-1.362a3.1,3.1,0,0,1-1.988-2.882V36.224l-.4.4a.617.617,0,0,1-.872-.872Z" transform="translate(-60.795 -30)"/></svg>